<?xml version="1.0" encoding="UTF-8"?>
<svg width="842" height="842" id="Calque_1" xmlns="http://www.w3.org/2000/svg" viewBox="0 0 841.89 595.28">
    <defs>
        <style>.cls-1{fill:#e2424b;}.cls-2{fill:#144f6f;}.cls-3{fill:#2a839f;}</style>
    </defs>
    <path class="cls-3"
          d="M489.97,297.04l-119.46-37.14c-2.81-.87-5.89-.14-7.95,1.95-11.48,11.65-18.22,25.8-18.22,41.08,0,16.4,7.76,31.5,20.81,43.6,2,1.85,4.82,2.54,7.45,1.83l117.79-31.67c9.78-2.64,9.48-16.59-.42-19.65Z"/>
    <path class="cls-2"
          d="M638.75,303.52c0-11.2,2.21-27.02,6.17-36.62,2.42-5.87-.13-12.62-5.79-15.52L306.16,127.34c-13.62-6.98-29.81,2.91-29.81,18.22v47.22c0,3.07,1.72,5.89,4.45,7.29l259.6,94.96c11.61,5.95,11.61,22.54,0,28.48l-259.6,79.98c-2.73,1.4-4.45,4.22-4.45,7.29v51.83c0,15.31,16.19,25.2,29.81,18.22l337.37-110.74c6.21-3.18,8.43-10.85,5.09-16.98-6.27-11.5-9.87-35.27-9.87-49.59Z"/>
    <path class="cls-3"
          d="M738.52,300.63l-58.88-30.93c-2.45-1.29-5.52-.37-6.77,2.1-4.84,9.53-7.65,20.43-7.76,32.05-.15,15.16,4.29,29.21,11.92,40.62,1.34,2.01,4.23,2.75,6.39,1.67l54.92-27.44c7.4-3.7,7.51-14.23,.18-18.07Z"/>
    <path class="cls-1"
          d="M317.2,301.22c0-14.39,5.99-27.79,16.28-39.03,2.34-2.56,1.29-6.68-2.03-7.71l-24.94-7.75c-11.51-3.56-23.66-3.82-35.03-.75l-166.36,41.48c-9.78,2.64-9.48,16.59,.42,19.65l168.43,48.6c11.51,3.56,23.66,3.82,35.03,.74l24.13-6.49c3.5-.94,4.63-5.29,2.09-7.88-11.35-11.61-18.01-25.69-18.01-40.87Z"/>
</svg>